<svg width="457" height="205" viewBox="0 0 457 205" fill="none" xmlns="http://www.w3.org/2000/svg">
<path fill-rule="evenodd" clip-rule="evenodd" d="M4.82875 89.4078C4.82875 57.2763 30.6988 31.2298 62.5271 31.2298C94.2923 31.3031 120.087 57.3212 120.087 89.4078C120.087 121.494 94.3588 147.512 62.5936 147.586H0.236023L21.2029 130.025C11.0718 119.54 4.82875 105.212 4.82875 89.4078ZM63.2826 117.662C78.7963 117.662 91.3727 105.085 91.3727 89.5716C91.3727 74.0579 78.7963 61.4815 63.2826 61.4815C47.7689 61.4815 35.1926 74.0579 35.1926 89.5716C35.1926 105.085 47.7689 117.662 63.2826 117.662Z" fill="#FF0000"/>
<circle cx="36.441" cy="13.7329" r="13.7329" fill="#FF0000"/>
<circle cx="88.8758" cy="13.7329" r="13.7329" fill="#FF0000"/>
<path d="M188.688 117.884C188.688 121.905 188.069 125.772 186.832 129.484C185.595 133.196 183.777 136.483 181.38 139.344C179.06 142.128 176.199 144.371 172.796 146.072C169.393 147.773 165.527 148.624 161.196 148.624C157.639 148.624 154.275 147.928 151.104 146.536C147.933 145.067 145.459 143.095 143.68 140.62H143.448V174.84H124.424V89.232H142.52V96.308H142.868C144.647 93.988 147.083 91.9773 150.176 90.276C153.347 88.4973 157.059 87.608 161.312 87.608C165.488 87.608 169.277 88.42 172.68 90.044C176.083 91.668 178.944 93.872 181.264 96.656C183.661 99.44 185.479 102.688 186.716 106.4C188.031 110.035 188.688 113.863 188.688 117.884ZM170.244 117.884C170.244 116.028 169.935 114.211 169.316 112.432C168.775 110.653 167.924 109.107 166.764 107.792C165.681 106.4 164.289 105.279 162.588 104.428C160.887 103.577 158.915 103.152 156.672 103.152C154.507 103.152 152.573 103.577 150.872 104.428C149.171 105.279 147.701 106.4 146.464 107.792C145.304 109.184 144.376 110.769 143.68 112.548C143.061 114.327 142.752 116.144 142.752 118C142.752 119.856 143.061 121.673 143.68 123.452C144.376 125.231 145.304 126.816 146.464 128.208C147.701 129.6 149.171 130.721 150.872 131.572C152.573 132.423 154.507 132.848 156.672 132.848C158.915 132.848 160.887 132.423 162.588 131.572C164.289 130.721 165.681 129.6 166.764 128.208C167.924 126.816 168.775 125.231 169.316 123.452C169.935 121.596 170.244 119.74 170.244 117.884ZM215.51 70.788C215.51 72.2573 215.201 73.6493 214.582 74.964C214.041 76.2013 213.268 77.284 212.262 78.212C211.334 79.14 210.174 79.8747 208.782 80.416C207.468 80.9573 206.076 81.228 204.606 81.228C201.513 81.228 198.922 80.2227 196.834 78.212C194.746 76.124 193.702 73.6493 193.702 70.788C193.702 69.396 193.973 68.0813 194.514 66.844C195.056 65.5293 195.829 64.408 196.834 63.48C197.84 62.552 199 61.8173 200.314 61.276C201.629 60.6573 203.06 60.348 204.606 60.348C206.076 60.348 207.468 60.6187 208.782 61.16C210.174 61.7013 211.334 62.436 212.262 63.364C213.268 64.292 214.041 65.4133 214.582 66.728C215.201 67.9653 215.51 69.3187 215.51 70.788ZM195.094 147V89.232H214.118V147H195.094ZM261.319 147V115.448C261.319 113.824 261.164 112.277 260.855 110.808C260.623 109.339 260.197 108.063 259.579 106.98C258.96 105.82 258.071 104.931 256.911 104.312C255.828 103.616 254.436 103.268 252.735 103.268C251.033 103.268 249.525 103.616 248.211 104.312C246.973 104.931 245.929 105.82 245.079 106.98C244.228 108.14 243.571 109.493 243.107 111.04C242.72 112.509 242.527 114.056 242.527 115.68V147H223.387V89.232H241.831V97.236H242.063C242.759 95.9987 243.648 94.8 244.731 93.64C245.891 92.4027 247.205 91.3587 248.675 90.508C250.221 89.6573 251.884 88.9613 253.663 88.42C255.441 87.8787 257.336 87.608 259.347 87.608C263.213 87.608 266.5 88.304 269.207 89.696C271.913 91.088 274.079 92.9053 275.703 95.148C277.404 97.3133 278.603 99.8267 279.299 102.688C280.072 105.549 280.459 108.411 280.459 111.272V147H261.319ZM309.715 70.788C309.715 72.2573 309.406 73.6493 308.787 74.964C308.246 76.2013 307.472 77.284 306.467 78.212C305.539 79.14 304.379 79.8747 302.987 80.416C301.672 80.9573 300.28 81.228 298.811 81.228C295.718 81.228 293.127 80.2227 291.039 78.212C288.951 76.124 287.907 73.6493 287.907 70.788C287.907 69.396 288.178 68.0813 288.719 66.844C289.26 65.5293 290.034 64.408 291.039 63.48C292.044 62.552 293.204 61.8173 294.519 61.276C295.834 60.6573 297.264 60.348 298.811 60.348C300.28 60.348 301.672 60.6187 302.987 61.16C304.379 61.7013 305.539 62.436 306.467 63.364C307.472 64.292 308.246 65.4133 308.787 66.728C309.406 67.9653 309.715 69.3187 309.715 70.788ZM289.299 147V89.232H308.323V147H289.299ZM378.839 117.884C378.839 122.601 377.989 126.893 376.287 130.76C374.586 134.549 372.266 137.797 369.327 140.504C366.389 143.133 362.986 145.183 359.119 146.652C355.253 148.121 351.115 148.856 346.707 148.856C342.377 148.856 338.239 148.121 334.295 146.652C330.429 145.183 327.026 143.133 324.087 140.504C321.226 137.797 318.945 134.549 317.243 130.76C315.542 126.893 314.691 122.601 314.691 117.884C314.691 113.167 315.542 108.913 317.243 105.124C318.945 101.335 321.226 98.1253 324.087 95.496C327.026 92.8667 330.429 90.856 334.295 89.464C338.239 88.072 342.377 87.376 346.707 87.376C351.115 87.376 355.253 88.072 359.119 89.464C362.986 90.856 366.389 92.8667 369.327 95.496C372.266 98.1253 374.586 101.335 376.287 105.124C377.989 108.913 378.839 113.167 378.839 117.884ZM360.511 117.884C360.511 116.028 360.202 114.211 359.583 112.432C358.965 110.653 358.075 109.107 356.915 107.792C355.755 106.4 354.325 105.279 352.623 104.428C350.922 103.577 348.95 103.152 346.707 103.152C344.465 103.152 342.493 103.577 340.791 104.428C339.09 105.279 337.659 106.4 336.499 107.792C335.417 109.107 334.566 110.653 333.947 112.432C333.406 114.211 333.135 116.028 333.135 117.884C333.135 119.74 333.406 121.557 333.947 123.336C334.566 125.115 335.455 126.739 336.615 128.208C337.775 129.6 339.206 130.721 340.907 131.572C342.609 132.423 344.581 132.848 346.823 132.848C349.066 132.848 351.038 132.423 352.739 131.572C354.441 130.721 355.871 129.6 357.031 128.208C358.191 126.739 359.042 125.115 359.583 123.336C360.202 121.557 360.511 119.74 360.511 117.884ZM423.016 147V115.448C423.016 113.824 422.861 112.277 422.552 110.808C422.32 109.339 421.895 108.063 421.276 106.98C420.657 105.82 419.768 104.931 418.608 104.312C417.525 103.616 416.133 103.268 414.432 103.268C412.731 103.268 411.223 103.616 409.908 104.312C408.671 104.931 407.627 105.82 406.776 106.98C405.925 108.14 405.268 109.493 404.804 111.04C404.417 112.509 404.224 114.056 404.224 115.68V147H385.084V89.232H403.528V97.236H403.76C404.456 95.9987 405.345 94.8 406.428 93.64C407.588 92.4027 408.903 91.3587 410.372 90.508C411.919 89.6573 413.581 88.9613 415.36 88.42C417.139 87.8787 419.033 87.608 421.044 87.608C424.911 87.608 428.197 88.304 430.904 89.696C433.611 91.088 435.776 92.9053 437.4 95.148C439.101 97.3133 440.3 99.8267 440.996 102.688C441.769 105.549 442.156 108.411 442.156 111.272V147H423.016Z" fill="#FF0000"/>
</svg>
